<?xml version="1.0" standalone="no"?>
<!DOCTYPE svg PUBLIC "-//W3C//DTD SVG 20010904//EN"
 "http://www.w3.org/TR/2001/REC-SVG-20010904/DTD/svg10.dtd">
<svg version="1.0" xmlns="http://www.w3.org/2000/svg"
 width="309.000000pt" height="309.000000pt" viewBox="0 0 309.000000 309.000000"
 preserveAspectRatio="xMidYMid meet">
<metadata>
Created by potrace 1.14, written by Peter Selinger 2001-2017
</metadata>
<g transform="translate(0.000000,309.000000) scale(0.100000,-0.100000)"
fill="#000000" stroke="none">
<path d="M1198 2696 c-81 -29 -120 -78 -134 -164 -11 -72 48 -169 119 -195 15
-6 17 -17 15 -84 l-3 -78 -62 -5 c-103 -8 -155 -61 -161 -165 -4 -53 -7 -65
-21 -65 -10 0 -41 -7 -70 -16 -103 -30 -181 -140 -181 -256 l0 -38 -57 0 c-68
0 -113 -23 -143 -72 -18 -30 -20 -51 -20 -254 0 -213 1 -222 23 -255 30 -45
80 -69 144 -69 l51 0 7 -48 c15 -110 98 -198 207 -222 32 -6 198 -10 445 -10
l395 1 153 -91 c84 -49 155 -90 159 -90 3 0 6 40 6 89 l0 88 56 7 c150 17 239
108 251 255 l6 69 73 4 c81 5 114 22 144 71 18 29 20 52 20 255 0 247 -4 266
-63 302 -24 15 -50 20 -104 20 l-72 0 -7 38 c-18 100 -87 180 -178 207 -27 8
-55 15 -62 15 -7 0 -13 23 -16 65 -6 99 -58 155 -151 165 l-52 5 -3 77 -3 77
36 17 c73 34 120 136 97 212 -29 94 -96 147 -188 146 -122 -2 -204 -111 -180
-239 8 -39 65 -110 97 -120 17 -6 19 -16 19 -91 l0 -84 -235 0 -235 0 0 85 c0
48 4 85 10 85 18 0 83 65 96 97 17 39 18 111 3 150 -33 87 -145 140 -231 109z
m105 -134 c36 -32 16 -97 -36 -115 -47 -17 -99 47 -76 95 21 47 71 56 112 20z
m617 -21 c21 -53 -27 -112 -77 -94 -70 24 -71 113 -3 135 27 9 68 -13 80 -41z
m68 -503 c7 -7 12 -31 12 -55 l0 -43 -455 0 -455 0 0 43 c0 24 5 48 12 55 17
17 869 17 886 0z m189 -245 c24 -11 42 -30 54 -57 17 -38 19 -73 19 -414 0
-403 -1 -413 -55 -462 -25 -24 -32 -25 -131 -22 l-104 3 0 -61 c0 -33 -2 -60
-4 -60 -3 0 -47 25 -99 55 l-94 55 -412 0 c-458 0 -461 0 -501 65 -19 31 -20
49 -20 424 0 433 0 433 63 471 31 19 55 20 640 20 549 0 612 -2 644 -17z m323
-433 l0 -200 -24 -6 c-13 -3 -37 -4 -52 -2 l-29 3 -3 203 -2 202 55 0 55 0 0
-200z m-1800 -55 l0 -205 -50 0 -50 0 0 205 0 205 50 0 50 0 0 -205z"/>
<path d="M1815 1651 c-85 -21 -143 -84 -153 -167 l-5 -46 32 6 c17 3 44 8 60
12 22 4 30 12 35 34 3 19 16 35 36 45 26 14 34 14 65 1 26 -11 37 -23 41 -45
7 -31 12 -35 78 -46 l39 -6 -5 54 c-3 34 -13 65 -27 86 -39 54 -130 88 -196
72z"/>
<path d="M1165 1621 c-22 -10 -48 -27 -57 -37 -25 -28 -48 -88 -48 -124 0 -25
4 -30 18 -27 9 3 33 8 53 11 31 5 38 11 43 36 4 22 15 35 41 47 33 16 39 16
63 3 15 -9 34 -30 42 -47 12 -26 24 -34 60 -42 25 -5 49 -6 54 -1 13 13 -3 86
-28 122 -48 72 -155 99 -241 59z"/>
<path d="M1300 1115 c0 -48 43 -108 101 -139 60 -33 159 -45 224 -27 86 23
165 100 165 160 0 19 -6 21 -55 21 -53 0 -55 -1 -69 -34 -18 -43 -60 -66 -121
-66 -61 0 -103 23 -121 66 -12 29 -19 34 -47 34 -17 0 -42 3 -54 6 -20 5 -23
2 -23 -21z"/>
</g>
</svg>
